<svg width="86" height="18" viewBox="0 0 86 18" fill="none" xmlns="http://www.w3.org/2000/svg">
<path d="M12.384 3.976C13.4933 3.976 14.3733 4.312 15.024 4.984C15.6853 5.656 16.016 6.58933 16.016 7.784V13H13.296V8.152C13.296 7.576 13.1413 7.13333 12.832 6.824C12.5333 6.504 12.1173 6.344 11.584 6.344C11.0507 6.344 10.6293 6.504 10.32 6.824C10.0213 7.13333 9.872 7.576 9.872 8.152V13H7.152V8.152C7.152 7.576 6.99733 7.13333 6.688 6.824C6.38933 6.504 5.97333 6.344 5.44 6.344C4.90667 6.344 4.48533 6.504 4.176 6.824C3.87733 7.13333 3.728 7.576 3.728 8.152V13H0.992V4.072H3.728V5.192C4.00533 4.81867 4.368 4.52533 4.816 4.312C5.264 4.088 5.77067 3.976 6.336 3.976C7.008 3.976 7.60533 4.12 8.128 4.408C8.66133 4.696 9.07733 5.10667 9.376 5.64C9.68533 5.14933 10.1067 4.74933 10.64 4.44C11.1733 4.13067 11.7547 3.976 12.384 3.976ZM25.3855 8.392C25.3855 8.648 25.3695 8.91467 25.3375 9.192H19.1455C19.1882 9.74667 19.3642 10.1733 19.6735 10.472C19.9935 10.76 20.3828 10.904 20.8415 10.904C21.5242 10.904 21.9988 10.616 22.2655 10.04H25.1775C25.0282 10.6267 24.7562 11.1547 24.3615 11.624C23.9775 12.0933 23.4922 12.4613 22.9055 12.728C22.3188 12.9947 21.6628 13.128 20.9375 13.128C20.0628 13.128 19.2842 12.9413 18.6015 12.568C17.9188 12.1947 17.3855 11.6613 17.0015 10.968C16.6175 10.2747 16.4255 9.464 16.4255 8.536C16.4255 7.608 16.6122 6.79733 16.9855 6.104C17.3695 5.41067 17.9028 4.87733 18.5855 4.504C19.2682 4.13067 20.0522 3.944 20.9375 3.944C21.8015 3.944 22.5695 4.12533 23.2415 4.488C23.9135 4.85067 24.4362 5.368 24.8095 6.04C25.1935 6.712 25.3855 7.496 25.3855 8.392ZM22.5855 7.672C22.5855 7.20267 22.4255 6.82933 22.1055 6.552C21.7855 6.27467 21.3855 6.136 20.9055 6.136C20.4468 6.136 20.0575 6.26933 19.7375 6.536C19.4282 6.80267 19.2362 7.18133 19.1615 7.672H22.5855ZM25.3249 8.52C25.3249 7.60267 25.4955 6.79733 25.8369 6.104C26.1889 5.41067 26.6635 4.87733 27.2609 4.504C27.8582 4.13067 28.5249 3.944 29.2609 3.944C29.8902 3.944 30.4395 4.072 30.9089 4.328C31.3889 4.584 31.7569 4.92 32.0129 5.336V4.072H34.7489V13H32.0129V11.736C31.7462 12.152 31.3729 12.488 30.8929 12.744C30.4235 13 29.8742 13.128 29.2449 13.128C28.5195 13.128 27.8582 12.9413 27.2609 12.568C26.6635 12.184 26.1889 11.6453 25.8369 10.952C25.4955 10.248 25.3249 9.43733 25.3249 8.52ZM32.0129 8.536C32.0129 7.85333 31.8209 7.31467 31.4369 6.92C31.0635 6.52533 30.6049 6.328 30.0609 6.328C29.5169 6.328 29.0529 6.52533 28.6689 6.92C28.2955 7.304 28.1089 7.83733 28.1089 8.52C28.1089 9.20267 28.2955 9.74667 28.6689 10.152C29.0529 10.5467 29.5169 10.744 30.0609 10.744C30.6049 10.744 31.0635 10.5467 31.4369 10.152C31.8209 9.75733 32.0129 9.21867 32.0129 8.536ZM38.5042 1.16V13H35.7682V1.16H38.5042ZM42.263 5.336C42.5297 4.92 42.8977 4.584 43.367 4.328C43.8363 4.072 44.3857 3.944 45.015 3.944C45.751 3.944 46.4177 4.13067 47.015 4.504C47.6123 4.87733 48.0817 5.41067 48.423 6.104C48.775 6.79733 48.951 7.60267 48.951 8.52C48.951 9.43733 48.775 10.248 48.423 10.952C48.0817 11.6453 47.6123 12.184 47.015 12.568C46.4177 12.9413 45.751 13.128 45.015 13.128C44.3963 13.128 43.847 13 43.367 12.744C42.8977 12.488 42.5297 12.1573 42.263 11.752V17.256H39.527V4.072H42.263V5.336ZM46.167 8.52C46.167 7.83733 45.975 7.304 45.591 6.92C45.2177 6.52533 44.7537 6.328 44.199 6.328C43.655 6.328 43.191 6.52533 42.807 6.92C42.4337 7.31467 42.247 7.85333 42.247 8.536C42.247 9.21867 42.4337 9.75733 42.807 10.152C43.191 10.5467 43.655 10.744 44.199 10.744C44.743 10.744 45.207 10.5467 45.591 10.152C45.975 9.74667 46.167 9.20267 46.167 8.52ZM50.8024 3.144C50.3224 3.144 49.9277 3.00533 49.6184 2.728C49.3197 2.44 49.1704 2.088 49.1704 1.672C49.1704 1.24533 49.3197 0.893333 49.6184 0.615999C49.9277 0.327999 50.3224 0.183999 50.8024 0.183999C51.2717 0.183999 51.6557 0.327999 51.9544 0.615999C52.2637 0.893333 52.4184 1.24533 52.4184 1.672C52.4184 2.088 52.2637 2.44 51.9544 2.728C51.6557 3.00533 51.2717 3.144 50.8024 3.144ZM52.1624 4.072V13H49.4264V4.072H52.1624ZM52.6411 8.536C52.6411 7.608 52.8278 6.79733 53.2011 6.104C53.5851 5.41067 54.1131 4.87733 54.7851 4.504C55.4678 4.13067 56.2465 3.944 57.1211 3.944C58.2411 3.944 59.1745 4.23733 59.9211 4.824C60.6785 5.41067 61.1745 6.23733 61.4091 7.304H58.4971C58.2518 6.62133 57.7771 6.28 57.0731 6.28C56.5718 6.28 56.1718 6.47733 55.8731 6.872C55.5745 7.256 55.4251 7.81067 55.4251 8.536C55.4251 9.26133 55.5745 9.82133 55.8731 10.216C56.1718 10.6 56.5718 10.792 57.0731 10.792C57.7771 10.792 58.2518 10.4507 58.4971 9.768H61.4091C61.1745 10.8133 60.6785 11.6347 59.9211 12.232C59.1638 12.8293 58.2305 13.128 57.1211 13.128C56.2465 13.128 55.4678 12.9413 54.7851 12.568C54.1131 12.1947 53.5851 11.6613 53.2011 10.968C52.8278 10.2747 52.6411 9.464 52.6411 8.536ZM67.3686 13L64.6486 9.256V13H61.9126V1.16H64.6486V7.704L67.3526 4.072H70.7286L67.0166 8.552L70.7606 13H67.3686ZM79.2592 8.392C79.2592 8.648 79.2432 8.91467 79.2113 9.192H73.0192C73.0619 9.74667 73.2379 10.1733 73.5472 10.472C73.8672 10.76 74.2566 10.904 74.7153 10.904C75.3979 10.904 75.8726 10.616 76.1392 10.04H79.0513C78.9019 10.6267 78.6299 11.1547 78.2353 11.624C77.8513 12.0933 77.3659 12.4613 76.7793 12.728C76.1926 12.9947 75.5366 13.128 74.8112 13.128C73.9366 13.128 73.1579 12.9413 72.4752 12.568C71.7926 12.1947 71.2592 11.6613 70.8752 10.968C70.4912 10.2747 70.2992 9.464 70.2992 8.536C70.2992 7.608 70.4859 6.79733 70.8592 6.104C71.2432 5.41067 71.7766 4.87733 72.4592 4.504C73.1419 4.13067 73.9259 3.944 74.8112 3.944C75.6753 3.944 76.4433 4.12533 77.1153 4.488C77.7873 4.85067 78.3099 5.368 78.6833 6.04C79.0672 6.712 79.2592 7.496 79.2592 8.392ZM76.4592 7.672C76.4592 7.20267 76.2992 6.82933 75.9792 6.552C75.6592 6.27467 75.2593 6.136 74.7793 6.136C74.3206 6.136 73.9312 6.26933 73.6112 6.536C73.3019 6.80267 73.1099 7.18133 73.0352 7.672H76.4592ZM82.4786 5.56C82.7986 5.06933 83.1986 4.68533 83.6786 4.408C84.1586 4.12 84.692 3.976 85.2786 3.976V6.872H84.5266C83.844 6.872 83.332 7.02133 82.9906 7.32C82.6493 7.608 82.4786 8.12 82.4786 8.856V13H79.7426V4.072H82.4786V5.56Z" fill="#2D2D2D"/>
</svg>
